# xmcd
#
# Track frame offsets: 
#        150
#        19604
#        33317
#        57419
#        89266
#        103489
#        122553
#        143410
#        167656
#        179466
#        194951
#
# Disc length: 2776 seconds
#
# Revision: 0
# Processed by: cddbd v1.5.2PL0 Copyright (c) Steve Scherf et al.
# Submitted via: ExactAudioCopy v0.95b4
#
DISCID=980ad60b
DTITLE=scissormen - Luck In A Hurry
DYEAR=2008
DGENRE=Blues
TTITLE0=Tupelo
TTITLE1=Move Baby Move
TTITLE2=Mattie Sweet Mattie
TTITLE3=Death Letter
TTITLE4=Junior's Blues
TTITLE5=Preachin' The Blues
TTITLE6=Whiskey and MaryJane
TTITLE7=The Devil Is Laughing
TTITLE8=John The Revelator
TTITLE9=When The Devil Calls
TTITLE10=Do Wrong Man
EXTD=
EXTT0=
EXTT1=
EXTT2=
EXTT3=
EXTT4=
EXTT5=
EXTT6=
EXTT7=
EXTT8=
EXTT9=
EXTT10=
PLAYORDER=
